<svg xmlns="http://www.w3.org/2000/svg" version="1.1" xmlns:xlink="http://www.w3.org/1999/xlink" xmlns:svgjs="http://svgjs.dev/svgjs" width="1000" height="1000" viewBox="0 0 1000 1000"><g transform="matrix(1,0,0,1,-0.14221556886212738,-0.14221556886229791)"><svg viewBox="0 0 334 334" data-background-color="#282634" preserveAspectRatio="xMidYMid meet" height="1000" width="1000" xmlns="http://www.w3.org/2000/svg" xmlns:xlink="http://www.w3.org/1999/xlink"><g id="tight-bounds" transform="matrix(1,0,0,1,0.04749999999998522,0.04750000000001364)"><svg viewBox="0 0 333.90454557049503 333.90454557049503" height="333.90454557049503" width="333.90454557049503"><g><svg></svg></g><g><svg viewBox="0 0 333.90454557049503 333.90454557049503" height="333.90454557049503" width="333.90454557049503"><g><path d="M0 166.952c0-92.205 74.747-166.952 166.952-166.952 92.205 0 166.952 74.747 166.953 166.952 0 92.205-74.747 166.952-166.953 166.953-92.205 0-166.952-74.747-166.952-166.953zM166.952 324.271c86.885 0 157.318-70.434 157.319-157.319 0-86.885-70.434-157.318-157.319-157.318-86.885 0-157.318 70.434-157.318 157.318 0 86.885 70.434 157.318 157.318 157.319z" data-fill-palette-color="tertiary" fill="#ff4057" stroke="transparent"></path><ellipse rx="160.27418187383762" ry="160.27418187383762" cx="166.95227278524752" cy="166.95227278524752" fill="#ff4057" stroke="transparent" stroke-width="0" fill-opacity="1" data-fill-palette-color="tertiary"></ellipse></g><g transform="matrix(1,0,0,1,70.89461043135496,71.17305217166896)"><svg viewBox="0 0 192.1153247077851 191.55844122715712" height="191.55844122715712" width="192.1153247077851"><g><svg viewBox="0 0 192.1153247077851 191.55844122715712" height="191.55844122715712" width="192.1153247077851"><g><svg viewBox="0 0 213.1584412271571 212.54056019733105" height="191.55844122715712" width="192.1153247077851"><g transform="matrix(1,0,0,1,0,94.01080912593706)"><svg viewBox="0 0 213.1584412271571 118.529751071394" height="118.529751071394" width="213.1584412271571"><g id="textblocktransform"><svg viewBox="0 0 213.1584412271571 118.529751071394" height="118.529751071394" width="213.1584412271571" id="textblock"><g><svg viewBox="0 0 213.1584412271571 118.529751071394" height="118.529751071394" width="213.1584412271571"><g transform="matrix(1,0,0,1,0,0)"><svg width="213.1584412271571" viewBox="1.25 -36 65.55000305175781 36.45000076293945" height="118.529751071394" data-palette-color="#282634"><path d="M27.45-2.1Q25.95-1 23.28-0.28 20.6 0.45 16.38 0.45 12.15 0.45 8.35-0.25 4.55-0.95 2.9-1.8 1.25-2.65 1.25-3.45L1.25-3.45Q1.25-6.25 2.05-9.28 2.85-12.3 3.95-12.3L3.95-12.3Q4.15-12.3 8.1-10.95 12.05-9.6 14.05-9.6 16.05-9.6 16.65-10.03 17.25-10.45 17.25-11.25 17.25-12.05 16.15-12.68 15.05-13.3 13.4-13.78 11.75-14.25 9.83-15.15 7.9-16.05 6.25-17.15 4.6-18.25 3.5-20.28 2.4-22.3 2.4-24.9L2.4-24.9Q2.4-36 15.65-36L15.65-36Q20.6-36 24.2-35.38 27.8-34.75 29.28-33.98 30.75-33.2 30.75-32.45L30.75-32.45Q30.75-29.85 29.53-26.85 28.3-23.85 27.15-23.85L27.15-23.85Q26.95-23.85 25.85-24.3L25.85-24.3Q22.55-25.75 20.38-25.75 18.2-25.75 17.43-25.35 16.65-24.95 16.65-24.13 16.65-23.3 17.75-22.78 18.85-22.25 20.48-21.83 22.1-21.4 24.03-20.53 25.95-19.65 27.6-18.48 29.25-17.3 30.35-15.15 31.45-13 31.45-10.15L31.45-10.15Q31.45-7.15 29.9-4.7L29.9-4.7Q28.95-3.2 27.45-2.1ZM48.6-9.05L48.6-1.45Q48.6-0.8 45.55-0.4 42.5 0 39.45 0 36.4 0 35.55-0.35 34.7-0.7 34.7-1.45L34.7-1.45 34.7-33.6Q34.7-36 49.1-36L49.1-36Q57.8-36 60.6-34.8L60.6-34.8Q64-33.4 65.2-31L65.2-31Q66.8-27.9 66.8-23.05L66.8-23.05Q66.8-16.4 64.5-13.4L64.5-13.4Q62.85-11.2 61.2-10.55 59.55-9.9 58.47-9.63 57.4-9.35 55.8-9.2L55.8-9.2Q53.6-9 49.8-9L49.8-9 48.6-9.05ZM48.65-27.6L48.65-17.35 49.85-17.35Q50.8-17.35 51.35-17.63 51.9-17.9 52.32-19.13 52.75-20.35 52.75-22.58 52.75-24.8 52.27-25.98 51.8-27.15 51.32-27.38 50.85-27.6 50.2-27.6L50.2-27.6 48.65-27.6Z" opacity="1" transform="matrix(1,0,0,1,0,0)" fill="#282634" class="wordmark-text-0" data-fill-palette-color="quaternary" id="text-0"></path></svg></g></svg></g></svg></g></svg></g><g transform="matrix(1,0,0,1,40.713262274387006,0)"><svg viewBox="0 0 131.7319166783831 66.02877961200664" height="66.02877961200664" width="131.7319166783831"><g><svg xmlns="http://www.w3.org/2000/svg" xmlns:xlink="http://www.w3.org/1999/xlink" xml:space="preserve" style="shape-rendering:geometricPrecision;text-rendering:geometricPrecision;image-rendering:optimizeQuality;" viewBox="0.0000020265579223632812 0.0000027120113372802734 14.727499008178711 7.38195276260376" x="0" y="0" fill-rule="evenodd" clip-rule="evenodd" width="131.7319166783831" height="66.02877961200664" class="icon-icon-0" data-fill-palette-color="quaternary" id="icon-0"><g fill="#282634" data-fill-palette-color="quaternary"><path class="" d="M1.757 3.091c-0.313 0.444-0.296 1.331-0.417 1.95-0.153 0.784-0.711 1.203-1.34 1.534 0.188-0.771 0.348-1.542 0.412-2.313 0.078-0.953-0.06-0.891 0.767-1.575 1.159-0.961 3.04-1.741 5.848-2.29 2.456-0.406 5.049-0.453 7.701-0.351-0.89 1.809-3.733 1.961-7.203 1.581-1.811 0.02-3.495-0.488-5.768 1.464z m8.33 2.781c-3.895 2.038-7.803-2.284-9.165 0.688 2.104-1.831 5.079 3.183 9.165-0.688z m2.489-2.547c-4.49 2.72-9.502-0.792-10.907 1.859 3.412-1.235 7.765 2.753 10.907-1.859z m0.834-1.478c-3.944 1.761-10.043-1.402-11.565 2.239 3.106-1.808 8.446 1.438 11.565-2.239z" fill="#282634" data-fill-palette-color="quaternary"></path></g></svg></g></svg></g><g></g></svg></g></svg></g></svg></g></svg></g><defs></defs></svg><rect width="333.90454557049503" height="333.90454557049503" fill="none" stroke="none" visibility="hidden"></rect></g></svg></g></svg>